<svg xmlns="http://www.w3.org/2000/svg" xmlns:svg="http://www.w3.org/2000/svg" xmlns:xlink="http://www.w3.org/1999/xlink" version="1.0" height="661.9999999999968pt" width="744.6149982787969pt" viewBox="55.602694028021546 115.00000000000006 752.6149982787969 667.9999999999968" ><defs><style type="text/css">
            @font-face {
                font-family: 'noto_regular';
                src: url('https://app.creately.com/diagram/assets/fonts/noto/noto-regular.woff') format('woff'),
                     url('https://app.creately.com/diagram/assets/fonts/noto/noto-regular.woff2') format('woff2');
                font-weight: normal;
                font-style: normal;
            }
        p {
            margin: 0;
        }
        </style></defs><defs><style>
            span{ display: inline-block; }
        </style></defs><g id="Q5xeCGI1Q5H"><g transform="translate(279.9999999999999 150.00000000000006)"><rect x="0" y="0" width="329.99999999999943" height="629.9999999999968" fill="rgb(241,244,250)" stroke="rgba(0,0,0,0)" stroke-width="2" stroke-linecap="round" stroke-linejoin="round"/></g><g transform="translate(279.9999999999999, 118.00000000000006) rotate(0, 0, 22)" width="121.77" height="22"><text text-decoration="none" x="0" fill="#ffffff" font-weight="bold" font-size="12pt" font-family="noto_regular"  y="15">E-Voting&#160;</text><text text-decoration="none" x="65" fill="#ffffff" font-weight="bold" font-size="12pt" font-family="noto_regular"  y="15">System</text><text text-decoration="none" x="119" fill="#4b4b4b" font-size="10pt" font-family="noto_regular"  y="15"></text></g></g><g id="m1cmoNQ7yM1"><g transform="translate(760.0000000000002 419.99999556634987)"><ellipse cx="20.307692306818055" cy="7.8125001068095" rx="10.153846153409027" ry="7.8125001068095" fill="rgb(255,255,255)" stroke="#6d88f0" stroke-width="2" stroke-linecap="round" stroke-linejoin="round"/><path d="M 20.307692306818055,15.625000213619 L 20.307692306818055,37.500000512685595 L 40.61538461363611,62.500000854476 M 20.307692306818055,37.500000512685595 L 0,62.500000854476 M 2.0307692306818055,23.437500320428498 L 38.584615382954304,23.437500320428498" fill="none" stroke="#6d88f0" stroke-width="2" stroke-linecap="round" stroke-linejoin="round"/><rect x="0" y="0" width="40.61538461363611" height="62.500000854476" fill="rgba(255,255,255,0.01)" stroke="rgba(255,255,255,0.01)" stroke-width="2" stroke-linecap="round" stroke-linejoin="round"/></g><g transform="translate(755.3976923068184, 492.4999964208259) rotate(0, 24.91, 0)" width="49.82" height="40.01"><text text-decoration="none" x="0" fill="#455569" font-size="11pt" font-family="noto_regular"  y="14">System</text><text text-decoration="none" x="24.91" fill="#455569" font-size="11pt" font-family="noto_regular"  y="32"></text><text text-decoration="none" x="3.41" fill="#455569" font-size="11pt" font-family="noto_regular"  y="51">Admin</text><text text-decoration="none" x="46.41" fill="#4b4b4b" font-size="10pt" font-family="noto_regular"  y="51"></text></g></g><g id="JfsbATrAbwm"><g transform="translate(90.00000172120349 567.5000018378257)"><ellipse cx="20.307692306818055" cy="7.8125001068095" rx="10.153846153409027" ry="7.8125001068095" fill="rgb(255,255,255)" stroke="#6d88f0" stroke-width="2" stroke-linecap="round" stroke-linejoin="round"/><path d="M 20.307692306818055,15.625000213619 L 20.307692306818055,37.500000512685595 L 40.61538461363611,62.500000854476 M 20.307692306818055,37.500000512685595 L 0,62.500000854476 M 2.0307692306818055,23.437500320428498 L 38.584615382954304,23.437500320428498" fill="none" stroke="#6d88f0" stroke-width="2" stroke-linecap="round" stroke-linejoin="round"/><rect x="0" y="0" width="40.61538461363611" height="62.500000854476" fill="rgba(255,255,255,0.01)" stroke="rgba(255,255,255,0.01)" stroke-width="2" stroke-linecap="round" stroke-linejoin="round"/></g><g transform="translate(60.602694028021546, 640.0000026923017) rotate(0, 49.705, 0)" width="99.41" height="40.01"><text text-decoration="none" x="22.205" fill="#455569" font-size="11pt" font-family="noto_regular"  y="14">Election</text><text text-decoration="none" x="77.205" fill="#455569" font-size="11pt" font-family="noto_regular"  y="14"></text><text text-decoration="none" x="0.2049999999999983" fill="#455569" font-size="11pt" font-family="noto_regular"  y="33">Commissioner</text><text text-decoration="none" x="99.205" fill="#4b4b4b" font-size="10pt" font-family="noto_regular"  y="33"></text></g></g><g id="nwaVgjXr69G"><g transform="translate(90.00000172120349 289.9999942483216)"><ellipse cx="20.307692306818055" cy="7.8125001068095" rx="10.153846153409027" ry="7.8125001068095" fill="rgb(255,255,255)" stroke="#6d88f0" stroke-width="2" stroke-linecap="round" stroke-linejoin="round"/><path d="M 20.307692306818055,15.625000213619 L 20.307692306818055,37.500000512685595 L 40.61538461363611,62.500000854476 M 20.307692306818055,37.500000512685595 L 0,62.500000854476 M 2.0307692306818055,23.437500320428498 L 38.584615382954304,23.437500320428498" fill="none" stroke="#6d88f0" stroke-width="2" stroke-linecap="round" stroke-linejoin="round"/><rect x="0" y="0" width="40.61538461363611" height="62.500000854476" fill="rgba(255,255,255,0.01)" stroke="rgba(255,255,255,0.01)" stroke-width="2" stroke-linecap="round" stroke-linejoin="round"/></g><g transform="translate(91.66269402802155, 362.49999510279764) rotate(0, 18.645, 0)" width="37.29" height="20"><text text-decoration="none" x="0.14499999999999957" fill="#455569" font-size="11pt" font-family="noto_regular"  y="15">Voter</text><text text-decoration="none" x="37.144999999999996" fill="#4b4b4b" font-size="10pt" font-family="noto_regular"  y="15"></text></g></g><g id="a5Bh2iFrF0w"><g transform="translate(474.99999860392245 180.00000087175567)"><ellipse cx="50.000000000000085" cy="25.000000000000014" rx="50.000000000000085" ry="25.000000000000014" fill="rgb(255,255,255)" stroke="#6d88f0" stroke-width="2" stroke-linecap="round" stroke-linejoin="round"/></g><g transform="translate(505.26999860392255, 191.00000087175567) rotate(0, 19.73, 14)" width="39.46" height="28"><text text-decoration="none" x="0" fill="#6d88f0" font-size="8pt" font-family="noto_regular"  y="10">Election</text><text text-decoration="none" x="19.73" fill="#6d88f0" font-size="8pt" font-family="noto_regular"  y="24"></text><text text-decoration="none" x="5.23" fill="#6d88f0" font-size="8pt" font-family="noto_regular"  y="43">Setup</text><text text-decoration="none" x="34.230000000000004" fill="#4b4b4b" font-size="10pt" font-family="noto_regular"  y="43"></text></g></g><g id="SMUDsDRyiX8"><g transform="translate(475.00000145248055 289.99999797411715)"><ellipse cx="50.000000000000085" cy="25.000000000000014" rx="50.000000000000085" ry="25.000000000000014" fill="rgb(255,255,255)" stroke="#6d88f0" stroke-width="2" stroke-linecap="round" stroke-linejoin="round"/></g><g transform="translate(496.14000145248065, 300.99999797411715) rotate(0, 28.86, 14)" width="57.72" height="28"><text text-decoration="none" x="1.3599999999999994" fill="#6d88f0" font-size="8pt" font-family="noto_regular"  y="10">Add&#160;</text><text text-decoration="none" x="23.36" fill="#6d88f0" font-size="8pt" font-family="noto_regular"  y="10">Voters&#160;</text><text text-decoration="none" x="28.86" fill="#6d88f0" font-size="8pt" font-family="noto_regular"  y="24"></text><text text-decoration="none" x="2.8599999999999994" fill="#6d88f0" font-size="8pt" font-family="noto_regular"  y="43">or&#160;</text><text text-decoration="none" x="15.86" fill="#6d88f0" font-size="8pt" font-family="noto_regular"  y="43">Officers</text><text text-decoration="none" x="54.86" fill="#4b4b4b" font-size="10pt" font-family="noto_regular"  y="43"></text></g></g><g id="elrivPfZAwt"><g transform="translate(314.999998547519 180.00000087175567)"><ellipse cx="50.000000000000085" cy="25.000000000000014" rx="50.000000000000085" ry="25.000000000000014" fill="rgb(255,255,255)" stroke="#6d88f0" stroke-width="2" stroke-linecap="round" stroke-linejoin="round"/></g><g transform="translate(348.6999985475191, 197.99500087175568) rotate(0, 16.3, 7.005)" width="32.6" height="14.01"><text text-decoration="none" x="0.3000000000000007" fill="#6d88f0" font-size="8pt" font-family="noto_regular"  y="15">Voting</text><text text-decoration="none" x="32.3" fill="#4b4b4b" font-size="10pt" font-family="noto_regular"  y="15"></text></g></g><g id="fsWcXKAdrbp"><g transform="translate(314.999998547519 289.99999797411715)"><ellipse cx="50.000000000000085" cy="25.000000000000014" rx="50.000000000000085" ry="25.000000000000014" fill="rgb(255,255,255)" stroke="#6d88f0" stroke-width="2" stroke-linecap="round" stroke-linejoin="round"/></g><g transform="translate(336.6399985475191, 300.99999797411715) rotate(0, 28.36, 14)" width="56.72" height="28"><text text-decoration="none" x="16.86" fill="#6d88f0" font-size="8pt" font-family="noto_regular"  y="10">Vote&#160;</text><text text-decoration="none" x="0" fill="#6d88f0" font-size="8pt" font-family="noto_regular"  y="29">Verification</text><text text-decoration="none" x="57" fill="#4b4b4b" font-size="10pt" font-family="noto_regular"  y="29"></text></g></g><g id="nAt48uBc31r"><g transform="translate(314.99999860450157 629.9999991282414)"><ellipse cx="50.000000000000085" cy="25.000000000000014" rx="50.000000000000085" ry="25.000000000000014" fill="rgb(255,255,255)" stroke="#6d88f0" stroke-width="2" stroke-linecap="round" stroke-linejoin="round"/></g><g transform="translate(336.96499860450166, 640.9999991282414) rotate(0, 28.035, 14)" width="56.07" height="28"><text text-decoration="none" x="13.535" fill="#6d88f0" font-size="8pt" font-family="noto_regular"  y="10">Ballot&#160;</text><text text-decoration="none" x="1.0350000000000001" fill="#6d88f0" font-size="8pt" font-family="noto_regular"  y="29">Monitoring</text><text text-decoration="none" x="55.035" fill="#4b4b4b" font-size="10pt" font-family="noto_regular"  y="29"></text></g></g><g id="R3ugqKex0PV"><g transform="translate(314.999998547519 699.9999991282411)"><ellipse cx="50.000000000000085" cy="25.000000000000014" rx="50.000000000000085" ry="25.000000000000014" fill="rgb(255,255,255)" stroke="#6d88f0" stroke-width="2" stroke-linecap="round" stroke-linejoin="round"/></g><g transform="translate(329.1599985475191, 717.9949991282411) rotate(0, 35.84, 7.005)" width="71.68" height="14.01"><text text-decoration="none" x="23.840000000000003" fill="#6d88f0" font-size="8pt" font-family="noto_regular"  y="10">Tally&#160;</text><text text-decoration="none" x="12.840000000000003" fill="#6d88f0" font-size="8pt" font-family="noto_regular"  y="29">Checking</text><text text-decoration="none" x="58.84" fill="#4b4b4b" font-size="10pt" font-family="noto_regular"  y="29"></text></g></g><g id="wYIU1t7a2Iz"><g transform="translate(314.999998547519 554.999998873011)"><ellipse cx="50.000000000000085" cy="25.000000000000014" rx="50.000000000000085" ry="25.000000000000014" fill="rgb(255,255,255)" stroke="#6d88f0" stroke-width="2" stroke-linecap="round" stroke-linejoin="round"/></g><g transform="translate(329.8749985475191, 572.994998873011) rotate(0, 35.125, 7.005)" width="70.25" height="14.01"><text text-decoration="none" x="0.625" fill="#6d88f0" font-size="8pt" font-family="noto_regular"  y="15">Profile&#160;</text><text text-decoration="none" x="35.625" fill="#6d88f0" font-size="8pt" font-family="noto_regular"  y="15">Editing</text><text text-decoration="none" x="69.625" fill="#4b4b4b" font-size="10pt" font-family="noto_regular"  y="15"></text></g></g><g id="0pm5XZXN5Yf"><g transform="translate(314.999998547519 369.99999912824103)"><ellipse cx="50.000000000000085" cy="25.000000000000014" rx="50.000000000000085" ry="25.000000000000014" fill="rgb(255,255,255)" stroke="#6d88f0" stroke-width="2" stroke-linecap="round" stroke-linejoin="round"/></g><g transform="translate(334.53499854751914, 387.99499912824103) rotate(0, 30.465, 7.005)" width="60.93" height="14.01"><text text-decoration="none" x="0" fill="#6d88f0" font-size="8pt" font-family="noto_regular"  y="15">Registration</text><text text-decoration="none" x="61" fill="#4b4b4b" font-size="10pt" font-family="noto_regular"  y="15"></text></g></g><g id="WAkIlMURHdw"><g transform="translate(314.999998547519 479.99999912824103)"><ellipse cx="50.000000000000085" cy="25.000000000000014" rx="50.000000000000085" ry="25.000000000000014" fill="rgb(255,255,255)" stroke="#6d88f0" stroke-width="2" stroke-linecap="round" stroke-linejoin="round"/></g><g transform="translate(328.10499854751913, 497.99499912824103) rotate(0, 36.895, 7.005)" width="73.79" height="14.01"><text text-decoration="none" x="0.3950000000000031" fill="#6d88f0" font-size="8pt" font-family="noto_regular"  y="15">Authentication</text><text text-decoration="none" x="73.39500000000001" fill="#4b4b4b" font-size="10pt" font-family="noto_regular"  y="15"></text></g></g><g id="btlbvKy1nNd"><g><path d="M 146,321 L 315,205" fill="none" stroke="#6d88f0" stroke-width="2" stroke-linecap="round" stroke-linejoin="round"/></g></g><g id="XwvdQGYBDbJ"><g><path d="M 146,321 L 315,315" fill="none" stroke="#6d88f0" stroke-width="2" stroke-linecap="round" stroke-linejoin="round"/></g></g><g id="n5bC1N9hux5"><g><path d="M 745,439 L 575,205" fill="none" stroke="#6d88f0" stroke-width="2" stroke-linecap="round" stroke-linejoin="round"/></g></g><g id="FaqQfVMDPoT"><g><path d="M 745,439 L 575,315" fill="none" stroke="#6d88f0" stroke-width="2" stroke-linecap="round" stroke-linejoin="round"/></g></g><g id="3HqAErb4xqE"><g><path d="M 745,439 L 415,505" fill="none" stroke="#6d88f0" stroke-width="2" stroke-linecap="round" stroke-linejoin="round"/></g></g><g id="ZquECOK3HHZ"><g><path d="M 745,439 L 415,580" fill="none" stroke="#6d88f0" stroke-width="2" stroke-linecap="round" stroke-linejoin="round"/></g></g><g id="l6AxRqjX9vx"><g><path d="M 745,439 L 415,655" fill="none" stroke="#6d88f0" stroke-width="2" stroke-linecap="round" stroke-linejoin="round"/></g></g><g id="bhJH1LHPJ8F"><g><path d="M 745,439 L 415,725" fill="none" stroke="#6d88f0" stroke-width="2" stroke-linecap="round" stroke-linejoin="round"/></g></g><g id="QtRyR5cTYaz"><mask id="37477" x="132" y="491" width="197" height="109" maskUnits="userSpaceOnUse"><rect x="132" y="491" width="197" height="109" fill="white" />undefined</mask><g mask="url(#37477)"><path d="M 146,586 L 315,505" fill="none" stroke="#6d88f0" stroke-width="2" stroke-linecap="round" stroke-linejoin="round"/></g>undefined</g><g id="TbyoOoEEBH4"><g><path d="M 146,586 L 315,725" fill="none" stroke="#6d88f0" stroke-width="2" stroke-linecap="round" stroke-linejoin="round"/></g></g><g id="IAnvqcHG30T"><g><path d="M 146,586 L 315,655" fill="none" stroke="#6d88f0" stroke-width="2" stroke-linecap="round" stroke-linejoin="round"/></g></g><g id="CRjbnrkKrpe"><g><path d="M 146,586 L 315,580" fill="none" stroke="#6d88f0" stroke-width="2" stroke-linecap="round" stroke-linejoin="round"/></g></g><g id="swb8ie4hZsk"><mask id="80242" x="351" y="216" width="28" height="88" maskUnits="userSpaceOnUse"><rect x="351" y="216" width="28" height="88" fill="white" /><rect x="332.92" y="249.995" width="64.16" height="20.009999999999998" fill="black" />undefined</mask><g mask="url(#80242)"><path d="M 365,290 L 365,230" fill="none" stroke="#808080" stroke-width="2" stroke-linecap="round" stroke-linejoin="round" stroke-dasharray="5 5"/><path d="M 365,290 L 371.49717514124296,283.04347826086956 M 365,290 L 358.50282485875704,283.04347826086956 Z" fill="rgb(255,255,255)" stroke="#808080" stroke-width="2" stroke-linecap="round" stroke-linejoin="round"/></g><g transform="translate(335.92, 252.995)" width="58.16" height="14.01"><text text-decoration="none" x="0.0799999999999983" fill="#808080" font-weight="bold" font-size="8pt" font-family="noto_regular"  y="15">&#x3C;&#x3C;extend&#x3E;&#x3E;</text><text text-decoration="none" x="58.08" fill="#4b4b4b" font-size="10pt" font-family="noto_regular"  y="15"></text></g>undefined</g><g id="Jf9id8S7jlN"><mask id="d0f7b" x="351" y="406" width="28" height="88" maskUnits="userSpaceOnUse"><rect x="351" y="406" width="28" height="88" fill="white" /><rect x="332.92" y="439.995" width="64.16" height="20.009999999999998" fill="black" /></mask><g mask="url(#d0f7b)"><path d="M 365,480 L 365,420" fill="none" stroke="#808080" stroke-width="2" stroke-linecap="round" stroke-linejoin="round" stroke-dasharray="5 5"/><path d="M 365,480 L 371.49717514124296,473.04347826086956 M 365,480 L 358.50282485875704,473.04347826086956 Z" fill="rgb(255,255,255)" stroke="#808080" stroke-width="2" stroke-linecap="round" stroke-linejoin="round"/></g><g transform="translate(335.92, 442.995)" width="58.16" height="14.01"><text text-decoration="none" x="0.0799999999999983" fill="#808080" font-weight="bold" font-size="8pt" font-family="noto_regular"  y="15">&#x3C;&#x3C;extend&#x3E;&#x3E;</text><text text-decoration="none" x="58.08" fill="#4b4b4b" font-size="10pt" font-family="noto_regular"  y="15"></text></g></g><g id="UujVssEyacK"><mask id="fdb0b" x="511" y="216" width="28" height="88" maskUnits="userSpaceOnUse"><rect x="511" y="216" width="28" height="88" fill="white" /><rect x="492.07000132043703" y="249.99499715144185" width="65.86" height="20.009999999999998" fill="black" /></mask><g mask="url(#fdb0b)"><path d="M 525,290 L 525.000001012335,267 Q 525.0000010123351,266.99999854751934 525,257 Q 524.9999991209882,247.00000139607744 524.9999991209883,247 L 525,230" fill="none" stroke="#808080" stroke-width="2" stroke-linecap="round" stroke-linejoin="round" stroke-dasharray="5 5"/><path d="M 525,290 L 531.4971751412429,283.04347826086956 M 525,290 L 518.5028248587571,283.04347826086956 Z" fill="rgb(255,255,255)" stroke="#808080" stroke-width="2" stroke-linecap="round" stroke-linejoin="round"/></g><g transform="translate(495.07000132043703, 252.99499715144185)" width="59.86" height="14.01"><text text-decoration="none" x="0" fill="#808080" font-weight="bold" font-size="8pt" font-family="noto_regular"  y="15">&#x3C;&#x3C;include&#x3E;&#x3E;</text><text text-decoration="none" x="60" fill="#4b4b4b" font-size="10pt" font-family="noto_regular"  y="15"></text></g></g><g id="ret34SWCs5Q"><g><path d="M 146,321 L 315,505" fill="none" stroke="#6d88f0" stroke-width="2" stroke-linecap="round" stroke-linejoin="round"/></g></g><g id="aG769pkQMGP"><mask id="1d7c8" x="132" y="307" width="197" height="102" maskUnits="userSpaceOnUse"><rect x="132" y="307" width="197" height="102" fill="white" />undefinedundefinedundefinedundefined</mask><g mask="url(#1d7c8)"><path d="M 146,321 L 315,395" fill="none" stroke="#6d88f0" stroke-width="2" stroke-linecap="round" stroke-linejoin="round"/></g>undefinedundefinedundefinedundefined</g><g id="BsehvVgVTUO"><mask id="7fa98" x="132" y="307" width="197" height="287" maskUnits="userSpaceOnUse"><rect x="132" y="307" width="197" height="287" fill="white" />undefined</mask><g mask="url(#7fa98)"><path d="M 146,321 L 315,580" fill="none" stroke="#6d88f0" stroke-width="2" stroke-linecap="round" stroke-linejoin="round"/></g>undefined</g></svg>