<svg xmlns="http://www.w3.org/2000/svg" xmlns:svg="http://www.w3.org/2000/svg" xmlns:xlink="http://www.w3.org/1999/xlink" version="1.0" height="1070pt" width="1280.0000000000007pt" viewBox="504.99999999999983 526.9999999999999 1288.0000000000007 1076" ><defs><style type="text/css">
            @font-face {
                font-family: 'noto_regular';
                src: url('https://app.creately.com/diagram/assets/fonts/noto/noto-regular.woff') format('woff'),
                     url('https://app.creately.com/diagram/assets/fonts/noto/noto-regular.woff2') format('woff2');
                font-weight: normal;
                font-style: normal;
            }
        p {
            margin: 0;
        }
        </style></defs><defs><style>
            span{ display: inline-block; }
        </style></defs><g id="SJXW0vdNina"><g transform="translate(800 609.9999999999999)"><rect x="0" y="0" width="990.0000000000006" height="990.0000000000001" fill="rgb(243,243,243)" stroke="#B2B3B3" stroke-width="2" stroke-linecap="round" stroke-linejoin="round"/></g><g transform="translate(1272.3550000000002, 619.9999999999999) rotate(0, 22.645, 0)" width="45.29" height="18.4"><text text-decoration="none" x="1.1449999999999996" fill="#B2B3B3" font-size="10pt" font-family="noto_regular"  y="15">System</text><text text-decoration="none" x="44.144999999999996" fill="#4b4b4b" font-size="10pt" font-family="noto_regular"  y="15"></text></g></g><g id="xtK0IUDpHhY"><g transform="translate(974.9999999999999 700)"><ellipse cx="80.00000000000007" cy="34.99999999999998" rx="80.00000000000007" ry="34.99999999999998" fill="rgb(227,239,255)" stroke="#3D5C83" stroke-width="2" stroke-linecap="round" stroke-linejoin="round"/></g><g transform="translate(1002.59, 716.6) rotate(0, 52.41, 18.4)" width="104.82" height="36.8"><text text-decoration="none" x="4.909999999999997" fill="#222222" font-size="10pt" font-family="noto_regular"  y="12">Schedule&#160;</text><text text-decoration="none" x="60.91" fill="#222222" font-size="10pt" font-family="noto_regular"  y="12">patient</text><text text-decoration="none" x="99.91" fill="#222222" font-size="10pt" font-family="noto_regular"  y="12"></text><text text-decoration="none" x="16.909999999999997" fill="#222222" font-size="10pt" font-family="noto_regular"  y="31">appointment</text><text text-decoration="none" x="87.91" fill="#4b4b4b" font-size="10pt" font-family="noto_regular"  y="31"></text></g></g><g id="wI2pliMuUnh"><g transform="translate(969.9999999999998 850)"><ellipse cx="85.00000000000016" cy="34.999999999999986" rx="85.00000000000016" ry="34.999999999999986" fill="rgb(227,239,255)" stroke="#3D5C83" stroke-width="2" stroke-linecap="round" stroke-linejoin="round"/></g><g transform="translate(996.195, 866.6) rotate(0, 58.805, 18.4)" width="117.61" height="36.8"><text text-decoration="none" x="11.305" fill="#222222" font-size="10pt" font-family="noto_regular"  y="12">Schedule&#160;</text><text text-decoration="none" x="67.305" fill="#222222" font-size="10pt" font-family="noto_regular"  y="12">patient</text><text text-decoration="none" x="106.305" fill="#222222" font-size="10pt" font-family="noto_regular"  y="12"></text><text text-decoration="none" x="5.305" fill="#222222" font-size="10pt" font-family="noto_regular"  y="31">hospital&#160;</text><text text-decoration="none" x="53.305" fill="#222222" font-size="10pt" font-family="noto_regular"  y="31">admission</text><text text-decoration="none" x="112.305" fill="#4b4b4b" font-size="10pt" font-family="noto_regular"  y="31"></text></g></g><g id="MP7EyZhBXzc"><g transform="translate(974.9999999999999 989.9999999999998)"><ellipse cx="80.0000000000001" cy="35.0000000000001" rx="80.0000000000001" ry="35.0000000000001" fill="rgb(227,239,255)" stroke="#3D5C83" stroke-width="2" stroke-linecap="round" stroke-linejoin="round"/></g><g transform="translate(994.39, 1015.8) rotate(0, 60.61, 9.2)" width="121.22" height="18.4"><text text-decoration="none" x="7.109999999999999" fill="#222222" font-size="10pt" font-family="noto_regular"  y="15">Patient&#160;</text><text text-decoration="none" x="50.11" fill="#222222" font-size="10pt" font-family="noto_regular"  y="15">registration</text><text text-decoration="none" x="114.11" fill="#4b4b4b" font-size="10pt" font-family="noto_regular"  y="15"></text></g></g><g id="hYmZE1XPRMO"><g transform="translate(969.9999999999998 1120)"><ellipse cx="85.00000000000014" cy="34.999999999999986" rx="85.00000000000014" ry="34.999999999999986" fill="rgb(227,239,255)" stroke="#3D5C83" stroke-width="2" stroke-linecap="round" stroke-linejoin="round"/></g><g transform="translate(1006.06, 1136.6) rotate(0, 48.94, 18.4)" width="97.88" height="36.8"><text text-decoration="none" x="4.939999999999998" fill="#222222" font-size="10pt" font-family="noto_regular"  y="12">Patient&#160;</text><text text-decoration="none" x="47.94" fill="#222222" font-size="10pt" font-family="noto_regular"  y="12">hospital</text><text text-decoration="none" x="92.94" fill="#222222" font-size="10pt" font-family="noto_regular"  y="12"></text><text text-decoration="none" x="19.439999999999998" fill="#222222" font-size="10pt" font-family="noto_regular"  y="31">admission</text><text text-decoration="none" x="78.44" fill="#4b4b4b" font-size="10pt" font-family="noto_regular"  y="31"></text></g></g><g id="h8ccHbRYLvw"><g transform="translate(969.9999999999998 1270)"><ellipse cx="85.00000000000013" cy="40.00000000000003" rx="85.00000000000013" ry="40.00000000000003" fill="rgb(227,239,255)" stroke="#3D5C83" stroke-width="2" stroke-linecap="round" stroke-linejoin="round"/></g><g transform="translate(1011.89, 1291.6) rotate(0, 43.11, 18.4)" width="86.22" height="36.8"><text text-decoration="none" x="3.6099999999999994" fill="#222222" font-size="10pt" font-family="noto_regular"  y="12">File&#160;</text><text text-decoration="none" x="26.61" fill="#222222" font-size="10pt" font-family="noto_regular"  y="12">insurance</text><text text-decoration="none" x="82.61" fill="#222222" font-size="10pt" font-family="noto_regular"  y="12"></text><text text-decoration="none" x="4.609999999999999" fill="#222222" font-size="10pt" font-family="noto_regular"  y="31">forms/claims</text><text text-decoration="none" x="81.61" fill="#4b4b4b" font-size="10pt" font-family="noto_regular"  y="31"></text></g></g><g id="AiJ5JgKUcAc"><g transform="translate(969.9999999999999 1430.0000000000002)"><ellipse cx="85.00000000000016" cy="34.99999999999987" rx="85.00000000000016" ry="34.99999999999987" fill="rgb(227,239,255)" stroke="#3D5C83" stroke-width="2" stroke-linecap="round" stroke-linejoin="round"/></g><g transform="translate(993.415, 1455.8) rotate(0, 61.585, 9.2)" width="123.17" height="18.4"><text text-decoration="none" x="6.085000000000001" fill="#222222" font-size="10pt" font-family="noto_regular"  y="15">File&#160;</text><text text-decoration="none" x="29.085" fill="#222222" font-size="10pt" font-family="noto_regular"  y="15">medical&#160;</text><text text-decoration="none" x="77.08500000000001" fill="#222222" font-size="10pt" font-family="noto_regular"  y="15">reports</text><text text-decoration="none" x="117.08500000000001" fill="#4b4b4b" font-size="10pt" font-family="noto_regular"  y="15"></text></g></g><g id="Et7gZvmkooF"><g transform="translate(1504.9999999999995 1060)"><ellipse cx="90.0000000000001" cy="44.99999999999998" rx="90.0000000000001" ry="44.99999999999998" fill="rgb(227,239,255)" stroke="#3D5C83" stroke-width="2" stroke-linecap="round" stroke-linejoin="round"/></g><g transform="translate(1534.2649999999996, 1086.6) rotate(0, 60.735, 18.4)" width="121.47" height="36.8"><text text-decoration="none" x="7.234999999999999" fill="#222222" font-size="10pt" font-family="noto_regular"  y="12">Outpatient&#160;</text><text text-decoration="none" x="69.235" fill="#222222" font-size="10pt" font-family="noto_regular"  y="12">hospital</text><text text-decoration="none" x="114.235" fill="#222222" font-size="10pt" font-family="noto_regular"  y="12"></text><text text-decoration="none" x="31.235" fill="#222222" font-size="10pt" font-family="noto_regular"  y="31">admission</text><text text-decoration="none" x="90.235" fill="#4b4b4b" font-size="10pt" font-family="noto_regular"  y="31"></text></g></g><g id="MC7zIdTwKXc"><g transform="translate(1504.9999999999995 1210)"><ellipse cx="90.0000000000001" cy="39.999999999999964" rx="90.0000000000001" ry="39.999999999999964" fill="rgb(227,239,255)" stroke="#3D5C83" stroke-width="2" stroke-linecap="round" stroke-linejoin="round"/></g><g transform="translate(1539.6149999999996, 1231.6) rotate(0, 55.385, 18.4)" width="110.77" height="36.8"><text text-decoration="none" x="6.384999999999998" fill="#222222" font-size="10pt" font-family="noto_regular"  y="12">Inpatient&#160;</text><text text-decoration="none" x="59.385" fill="#222222" font-size="10pt" font-family="noto_regular"  y="12">hospital</text><text text-decoration="none" x="104.38499999999999" fill="#222222" font-size="10pt" font-family="noto_regular"  y="12"></text><text text-decoration="none" x="25.884999999999998" fill="#222222" font-size="10pt" font-family="noto_regular"  y="31">admission</text><text text-decoration="none" x="84.88499999999999" fill="#4b4b4b" font-size="10pt" font-family="noto_regular"  y="31"></text></g></g><g id="ek5zmjF7VgD"><g transform="translate(1504.9999999999995 1370)"><ellipse cx="90.00000000000009" cy="44.999999999999844" rx="90.00000000000009" ry="44.999999999999844" fill="rgb(227,239,255)" stroke="#3D5C83" stroke-width="2" stroke-linecap="round" stroke-linejoin="round"/></g><g transform="translate(1553.3449999999996, 1405.8) rotate(0, 41.655, 9.2)" width="83.31" height="18.4"><text text-decoration="none" x="4.655000000000001" fill="#222222" font-size="10pt" font-family="noto_regular"  y="15">Bed&#160;</text><text text-decoration="none" x="29.655" fill="#222222" font-size="10pt" font-family="noto_regular"  y="15">alloment</text><text text-decoration="none" x="78.655" fill="#4b4b4b" font-size="10pt" font-family="noto_regular"  y="15"></text></g></g><g id="Gpwe5XXyR5g"><g transform="translate(509.99999999999983 1030)"><ellipse cx="30.000000000000018" cy="15.000000000000016" rx="15.000000000000009" ry="15.000000000000016" fill="rgb(227,239,255)" stroke="#3D5C83" stroke-width="2" stroke-linecap="round" stroke-linejoin="round"/><path d="M 30.000000000000018,30.000000000000032 L 30.000000000000018,72.00000000000007 L 60.000000000000036,120.00000000000013 M 30.000000000000018,72.00000000000007 L 0,120.00000000000013 M 3.0000000000000018,45.00000000000005 L 57.000000000000036,45.00000000000005" fill="none" stroke="#3D5C83" stroke-width="2" stroke-linecap="round" stroke-linejoin="round"/><rect x="0" y="0" width="60.000000000000036" height="120.00000000000013" fill="rgba(255,255,255,0.01)" stroke="rgba(255,255,255,0.01)" stroke-width="2" stroke-linecap="round" stroke-linejoin="round"/></g><g transform="translate(523.3499999999999, 1160.0000000000002) rotate(0, 16.65, 0)" width="33.3" height="18.4"><text text-decoration="none" x="1.6499999999999986" fill="#3D5C83" font-size="10pt" font-family="noto_regular"  y="15">Actor</text><text text-decoration="none" x="31.65" fill="#4b4b4b" font-size="10pt" font-family="noto_regular"  y="15"></text></g></g><g id="bhIi1Cp6d0V"><g><path d="M 585,1042 L 983,720" fill="none" stroke="#7E7E7E" stroke-width="2" stroke-linecap="round" stroke-linejoin="round"/></g></g><g id="9Y0B26IW1rj"><g><path d="M 585,1066 L 970,887" fill="none" stroke="#7E7E7E" stroke-width="2" stroke-linecap="round" stroke-linejoin="round"/></g></g><g id="8ZOsIQ50yh6"><g><path d="M 585,1090 L 975,1025" fill="none" stroke="#7E7E7E" stroke-width="2" stroke-linecap="round" stroke-linejoin="round"/></g></g><g id="SuReGnWKwtb"><g><path d="M 585,1114 L 970,1155" fill="none" stroke="#7E7E7E" stroke-width="2" stroke-linecap="round" stroke-linejoin="round"/></g></g><g id="Cj0YWAI9xeL"><g><path d="M 585,1158 L 970,1465" fill="none" stroke="#7E7E7E" stroke-width="2" stroke-linecap="round" stroke-linejoin="round"/></g></g><g id="4dWFAccBWdY"><g><path d="M 585,1138 L 978,1293" fill="none" stroke="#7E7E7E" stroke-width="2" stroke-linecap="round" stroke-linejoin="round"/></g></g><g id="TcOKbI7riFF"><g><path d="M 1140,1155 L 1514,1086" fill="none" stroke="#7E7E7E" stroke-width="2" stroke-linecap="round" stroke-linejoin="round"/></g></g><g id="goY1ubnnqNj"><g><path d="M 1140,1155 L 1514,1233" fill="none" stroke="#7E7E7E" stroke-width="2" stroke-linecap="round" stroke-linejoin="round"/></g></g><g id="xBWScHwVLPk"><mask id="e05a8" x="1581" y="1276" width="28" height="108" maskUnits="userSpaceOnUse"><rect x="1581" y="1276" width="28" height="108" fill="white" /><rect x="1554.5" y="1318" width="81" height="24" fill="black" /></mask><g mask="url(#e05a8)"><path d="M 1595,1290 L 1595,1370" fill="none" stroke="#7C7B7A" stroke-width="2" stroke-linecap="round" stroke-linejoin="round" stroke-dasharray="3 3"/><path d="M 1595,1370 L 1601.497175141243,1363.0434782608695 M 1595,1370 L 1588.502824858757,1363.0434782608695 Z" fill="rgb(255,255,255)" stroke="#7C7B7A" stroke-width="2" stroke-linecap="round" stroke-linejoin="round"/></g><g transform="translate(1557.5, 1321)" width="75" height="18"><text text-decoration="none" x="3" fill="rgb(84, 84, 84)" font-size="10pt" font-family="noto_regular"  y="15">&#x3C;&#x3C;include&#x3E;&#x3E;</text><text text-decoration="none" x="72" fill="#4b4b4b" font-size="10pt" font-family="noto_regular"  y="15"></text></g></g><g id="j6rmFu1GQBX"><mask id="43817" x="1041" y="1046" width="28" height="88" maskUnits="userSpaceOnUse"><rect x="1041" y="1046" width="28" height="88" fill="white" /><rect x="1014.5" y="1078" width="81" height="24" fill="black" /></mask><g mask="url(#43817)"><path d="M 1055,1120 L 1055,1060" fill="none" stroke="#7C7B7A" stroke-width="2" stroke-linecap="round" stroke-linejoin="round" stroke-dasharray="3 3"/><path d="M 1055,1060 L 1048.502824858757,1066.9565217391305 M 1055,1060 L 1061.497175141243,1066.9565217391305 Z" fill="rgb(255,255,255)" stroke="#7C7B7A" stroke-width="2" stroke-linecap="round" stroke-linejoin="round"/></g><g transform="translate(1017.5, 1081)" width="75" height="18"><text text-decoration="none" x="3" fill="rgb(84, 84, 84)" font-size="10pt" font-family="noto_regular"  y="15">&#x3C;&#x3C;include&#x3E;&#x3E;</text><text text-decoration="none" x="72" fill="#4b4b4b" font-size="10pt" font-family="noto_regular"  y="15"></text></g></g><g id="VKcz67cggdL"><mask id="d1d90" x="1041" y="906" width="28" height="98" maskUnits="userSpaceOnUse"><rect x="1041" y="906" width="28" height="98" fill="white" /><rect x="1015.5" y="943" width="79" height="24" fill="black" /></mask><g mask="url(#d1d90)"><path d="M 1055,990 L 1055,920" fill="none" stroke="#7C7B7A" stroke-width="2" stroke-linecap="round" stroke-linejoin="round" stroke-dasharray="3 3"/><path d="M 1055,990 L 1061.497175141243,983.0434782608696 M 1055,990 L 1048.502824858757,983.0434782608696 Z" fill="rgb(255,255,255)" stroke="#7C7B7A" stroke-width="2" stroke-linecap="round" stroke-linejoin="round"/></g><g transform="translate(1018.5, 946)" width="73" height="18"><text text-decoration="none" x="3.5" fill="rgb(84, 84, 84)" font-size="10pt" font-family="noto_regular"  y="15">&#x3C;&#x3C;extend&#x3E;&#x3E;</text><text text-decoration="none" x="69.5" fill="#4b4b4b" font-size="10pt" font-family="noto_regular"  y="15"></text></g></g><g id="DrAbDGF5Pru"><mask id="94acb" x="1113" y="736" width="138" height="302" maskUnits="userSpaceOnUse"><rect x="1113" y="736" width="138" height="302" fill="white" /><rect x="1180.269028035024" y="857.1902403922984" width="79" height="24" fill="black" /></mask><g mask="url(#94acb)"><path d="M 1135,1024 L 1158,981 L 1237,838 L 1127,750" fill="none" stroke="#7C7B7A" stroke-width="2" stroke-linecap="round" stroke-linejoin="round" stroke-dasharray="3 3"/><path d="M 1127,750 L 1128.3733777144712,759.4191460959247 M 1127,750 L 1136.4908839821276,749.2722632613543 Z" fill="rgb(255,255,255)" stroke="#7C7B7A" stroke-width="2" stroke-linecap="round" stroke-linejoin="round"/></g><g transform="translate(1183.269028035024, 860.1902403922984)" width="73" height="18"><text text-decoration="none" x="3.5" fill="rgb(84, 84, 84)" font-size="10pt" font-family="noto_regular"  y="15">&#x3C;&#x3C;extend&#x3E;&#x3E;</text><text text-decoration="none" x="69.5" fill="#4b4b4b" font-size="10pt" font-family="noto_regular"  y="15"></text></g></g><g id="TDDLasxiuPF"><g transform="translate(1040 529.9999999999999)"><rect x="0" y="0" width="520" height="80" fill="rgba(255,255,255,0.01)" stroke="rgba(255,255,255,0.01)"/></g><g transform="translate(1050, 539.9999999999999) rotate(0, 0, 0)" width="499.32" height="54.41"><text text-decoration="none" x="0" fill="#183651" font-weight="bold" font-size="30pt" font-family="noto_regular"  y="37">Hospital&#160;</text><text text-decoration="none" x="162" fill="#183651" font-weight="bold" font-size="30pt" font-family="noto_regular"  y="37">Reception&#160;</text><text text-decoration="none" x="356" fill="#183651" font-weight="bold" font-size="30pt" font-family="noto_regular"  y="37">System</text><text text-decoration="none" x="493" fill="#4b4b4b" font-size="10pt" font-family="noto_regular"  y="37"></text></g></g></svg>